<svg viewBox="0 0 24 24" xmlns="http://www.w3.org/2000/svg"><g display="inline" stroke-width=".702087"><path d="M90.512-37.42a12.116 12.116 0 0 0-3.098 3.99 10.756 10.756 0 0 1-2.209-1.263 9.53 9.53 0 0 1 5.307-2.727zm2.976 0a9.53 9.53 0 0 1 5.307 2.727c-.619.46-1.352.898-2.21 1.263a12.116 12.116 0 0 0-3.097-3.99zm-1.988.494v4.38a11.737 11.737 0 0 1-3.201-.554c1.01-2.11 2.438-3.298 3.201-3.826zm1 0c.763.528 2.191 1.716 3.201 3.826-.936.306-2 .507-3.201.553zm-7.957 2.98a11.83 11.83 0 0 0 2.465 1.425c-.438 1.148-.736 2.484-.791 4.021H82.477a9.465 9.465 0 0 1 2.066-5.445zm14.914 0a9.465 9.465 0 0 1 2.066 5.446H97.783c-.055-1.537-.353-2.873-.79-4.021a11.83 11.83 0 0 0 2.464-1.424zM87.908-32.18c1.052.353 2.247.586 3.592.635v3.045h-4.277c.051-1.415.305-2.642.685-3.68zm8.184 0c.38 1.038.634 2.265.685 3.68H92.5v-3.045a12.684 12.684 0 0 0 3.592-.635zM82.477-27.5H86.217c.055 1.537.353 2.873.79 4.021-.958.411-1.778.907-2.464 1.424a9.465 9.465 0 0 1-2.066-5.445Zm4.746 0H91.5v3.045c-1.345.049-2.54.282-3.592.635-.38-1.038-.634-2.265-.685-3.68zm5.277 0h4.277c-.051 1.415-.305 2.642-.685 3.68a12.684 12.684 0 0 0-3.592-.635zm5.283 0H101.523a9.465 9.465 0 0 1-2.066 5.445 11.83 11.83 0 0 0-2.465-1.424c.438-1.148.736-2.484.791-4.021zM91.5-23.453v4.379c-.763-.528-2.191-1.716-3.201-3.826.936-.306 2-.507 3.201-.553zm1 0c1.2.046 2.265.247 3.201.553-1.01 2.11-2.438 3.298-3.201 3.826zm-5.086.883a12.116 12.116 0 0 0 3.098 3.99 9.53 9.53 0 0 1-5.307-2.727c.619-.46 1.352-.898 2.21-1.263zm9.172 0c.857.365 1.59.803 2.209 1.263a9.53 9.53 0 0 1-5.307 2.727 12.116 12.116 0 0 0 3.098-3.99z" style="line-height:normal;font-variant-ligatures:normal;font-variant-position:normal;font-variant-caps:normal;font-variant-numeric:normal;font-variant-alternates:normal;font-variant-east-asian:normal;font-feature-settings:normal;font-variation-settings:normal;text-indent:0;text-align:start;text-decoration-line:none;text-decoration-style:solid;text-decoration-color:#000;text-transform:none;text-orientation:mixed;white-space:normal;shape-padding:0;shape-margin:0;inline-size:0;isolation:auto;mix-blend-mode:normal;solid-color:#000;solid-opacity:1" transform="translate(-80 40)" color="#000000" font-style="normal" font-variant="normal" font-weight="400" font-stretch="normal" font-size="medium" font-family="sans-serif" text-decoration="none" letter-spacing="normal" word-spacing="normal" writing-mode="lr-tb" direction="ltr" dominant-baseline="auto" baseline-shift="baseline" text-anchor="start" clip-rule="nonzero" display="inline" overflow="visible" visibility="visible" opacity="1" color-interpolation="sRGB" color-interpolation-filters="linearRGB" vector-effect="none" fill="#ffffff" fill-opacity="1" fill-rule="nonzero" stroke="none" stroke-width="1" stroke-linecap="butt" stroke-linejoin="miter" stroke-miterlimit="4" stroke-dasharray="none" stroke-dashoffset="0" stroke-opacity="1" paint-order="fill markers stroke" color-rendering="auto" image-rendering="auto" shape-rendering="auto" text-rendering="auto" enable-background="accumulate" stop-color="#ffffff" stop-opacity="1" class="fill-000000 stop-color-000000"></path></g></svg>